<?xml version="1.0" standalone="no"?>
<!DOCTYPE svg PUBLIC "-//W3C//DTD SVG 20010904//EN"
 "http://www.w3.org/TR/2001/REC-SVG-20010904/DTD/svg10.dtd">
<svg version="1.0" xmlns="http://www.w3.org/2000/svg"
 width="260.000000pt" height="260.000000pt" viewBox="0 0 260.000000 260.000000"
 preserveAspectRatio="xMidYMid meet">
<metadata>
Created by potrace 1.14, written by Peter Selinger 2001-2017
</metadata>
<g transform="translate(0.000000,260.000000) scale(0.100000,-0.100000)"
fill="#000000" stroke="none">
<path d="M0 2440 l0 -110 50 0 50 0 0 -450 0 -450 -50 0 -50 0 0 -110 0 -110
50 0 50 0 0 -115 0 -115 100 0 100 0 0 60 0 60 210 0 210 0 0 -60 0 -60 105 0
105 0 0 60 0 60 45 0 45 0 0 110 0 110 55 0 55 0 0 55 0 55 170 0 170 0 0 -60
0 -60 50 0 50 0 0 -110 0 -110 50 0 50 0 0 -60 0 -60 105 0 105 0 0 60 0 60
205 0 205 0 0 -60 0 -60 100 0 100 0 0 115 0 115 55 0 55 0 0 115 0 115 -55 0
-55 0 0 450 0 450 55 0 55 0 0 110 0 110 -105 0 -105 0 0 -50 0 -50 -50 0 -50
0 0 -115 0 -115 -100 0 -100 0 0 55 0 55 50 0 50 0 0 110 0 110 -105 0 -105 0
0 -50 0 -50 -50 0 -50 0 0 -115 0 -115 -55 0 -55 0 0 -60 0 -60 -50 0 -50 0 0
-220 0 -220 -150 0 -150 0 0 55 0 55 -75 0 -75 0 0 -55 0 -55 -145 0 -145 0 0
220 0 220 -60 0 -60 0 0 60 0 60 -45 0 -45 0 0 110 0 110 -55 0 -55 0 0 55 0
55 -100 0 -100 0 0 -110 0 -110 50 0 50 0 0 -55 0 -55 -105 0 -105 0 0 110 0
110 -45 0 -45 0 0 55 0 55 -105 0 -105 0 0 -110z"/>
<path d="M440 925 c-7 -8 -12 -25 -12 -38 1 -26 327 -796 346 -815 9 -9 45
-14 115 -14 88 -1 105 2 120 18 15 16 335 755 349 807 2 10 -4 27 -13 37 -16
17 -31 20 -116 20 -85 0 -100 -2 -111 -19 -8 -11 -61 -141 -118 -290 -57 -149
-106 -271 -109 -271 -4 0 -53 123 -110 273 -58 149 -111 280 -119 290 -21 23
-203 25 -222 2z"/>
<path d="M1432 856 l-82 -84 0 -98 0 -99 85 -85 85 -85 158 -3 c126 -3 160 -7
175 -19 24 -22 21 -65 -6 -91 -22 -21 -32 -22 -228 -22 -146 0 -208 -3 -217
-12 -19 -19 -16 -172 3 -188 11 -9 81 -13 276 -12 l262 0 83 83 84 84 0 114 0
115 -83 83 -83 83 -161 0 c-142 0 -162 2 -176 18 -22 24 -21 45 1 65 16 15 45
17 201 17 180 0 182 0 206 25 21 20 25 34 25 87 0 112 11 108 -279 108 l-247
0 -82 -84z"/>
</g>
</svg>
